<svg xmlns:svg="http://www.w3.org/2000/svg" xmlns="http://www.w3.org/2000/svg" xmlns:xlink="http://www.w3.org/1999/xlink" xmlns:inkscape="http://www.inkscape.org/namespaces/inkscape" width="2249.088134765625" height="1024.0" id="svgoverlay" version="1.1">
  <defs id="defs4">
    <clipPath id="edgeclip">
      <path id="clippath" d="M1028.216309 637.584900 L1027.450195 637.217773, 1026.015259 642.489563, 1025.405273 646.585815, 1024.748901 650.642029, 1026.001465 655.949646, 1025.784180 659.582153, 1027.805908 664.954163, 1030.340576 669.088074, 1034.095581 674.915894, 1037.691528 679.400635, 1041.403320 683.979065, 1044.974487 688.069214, 1047.395020 690.233459, 1048.011841 692.084229, 1051.043213 695.946289, 1054.261841 699.985718, 1057.843018 704.295166, 1058.914062 704.744019, 1059.784790 706.287476, 1061.463257 709.555725, 1063.319092 713.499756, 1064.983032 718.178650, 1066.356323 722.433838, 1067.241577 726.820618, 1068.386353 730.257263, 1069.046265 732.963379, 1069.668091 736.014893, 1070.565308 736.579468, 1070.408325 738.428101, 1070.227661 740.998230, 1070.897095 743.242981, 1071.805054 743.953125, 1071.517944 745.390503, 1071.252563 747.857971, 1072.136841 751.252197, 1073.131104 754.574890, 1074.523438 758.250122, 1075.324341 760.666443, 1076.057007 762.339111, 1076.953003 764.845215, 1077.868286 767.658569, 1079.038818 770.287109, 1078.537231 773.075928, 1077.952148 776.283813, 1077.180786 779.291443, 1076.516846 782.727966, 1076.698730 784.231384, 1075.544678 785.200378, 1074.161743 787.868286, 1074.259644 791.506226, 1074.476440 793.443848, 1073.055298 794.233765, 1073.147583 797.159302, 1072.170532 799.906616, 1072.552734 801.930359, 1071.308472 803.852966, 1070.095825 807.905273, 1069.619141 811.271851, 1069.910645 814.390991, 1071.318970 816.800903, 1070.480713 819.166077, 1071.294312 819.698425, 1071.053955 821.208557, 1071.229126 823.965210, 1069.457275 825.908325, 1068.916138 827.591919, 1068.589233 828.904053, 1068.172729 831.095947, 1067.641235 833.887634, 1066.423828 836.788147, 1065.747803 841.018799, 1064.675415 843.804321, 1065.061035 845.679871, 1063.449951 846.494507, 1063.231201 848.747437, 1062.881958 850.960632, 1062.002808 854.525757, 1059.585571 857.380249, 1057.286865 860.886353, 1056.643677 864.089417, 1058.108521 865.615356, 1057.653931 868.286255, 1055.759033 869.766479, 1053.505737 871.796631, 1052.191040 874.052429, 1050.405518 875.168213, 1048.519897 875.808472, 1045.917725 876.884827, 1041.351562 878.853638, 1039.049805 880.755737, 1035.973022 882.294250, 1033.913452 884.087524, 1031.533936 885.280396, 1029.548340 887.256226, 1028.415039 888.863281, 1026.900757 887.970337, 1025.470215 890.133057, 1023.927307 891.528442, 1021.825378 892.932495, 1019.204468 895.383911, 1017.482788 898.749390, 1014.612549 901.801147, 1011.689880 904.802612, 1008.542725 907.520081, 1005.478577 910.290833, 1003.272339 912.088013, 1000.335205 914.408142, 998.265808 917.638245, 995.289673 919.865845, 992.678101 922.517456, 990.874573 925.306335, 988.737366 926.918579, 986.203064 928.366577, 985.009949 930.630920, 982.359680 932.077698, 979.450317 933.697632, 977.482361 934.448181, 975.215515 934.947510, 973.609436 936.216125, 971.375671 935.109680, 968.921204 936.581848, 967.560303 937.640076, 964.557068 937.488953, 961.276672 937.475403, 958.351196 938.055603, 955.082825 938.947327, 951.918579 937.251038, 947.400085 936.857056, 943.951721 937.078674, 941.173218 936.240051, 939.844421 936.860229, 938.571716 936.179199, 935.543152 935.558289, 934.947327 936.886902, 933.567993 936.673584, 931.329468 937.271606, 929.408386 937.922852, 927.948181 937.612427, 925.644226 937.091797, 925.823059 939.023926, 924.051453 938.845703, 921.862122 937.320374, 918.492188 937.987427, 915.469971 938.677246, 912.842834 937.320190, 909.929260 937.091309, 907.325745 936.818970, 904.479431 936.426758, 901.305786 937.224548, 898.524597 937.275330, 896.750916 937.679138, 895.243652 936.584534, 892.093689 937.650330, 890.327087 938.391846, 889.612793 937.081238, 886.962341 936.407898, 884.031189 937.270264, 882.895081 939.246033, 881.049744 939.465820, 878.889893 939.358521, 876.547363 939.672424, 874.224365 939.951355, 871.258179 940.155518, 868.765625 940.171082, 866.344299 940.108276, 863.534058 940.044312, 860.580261 939.869019, 858.907593 941.575012, 856.336548 941.203003, 854.330566 940.830933, 853.228333 941.247375, 852.407104 939.690552, 850.037231 941.354309, 848.557739 942.238220, 846.651550 942.956726, 844.328491 944.380005, 843.023926 945.240540, 841.365906 945.772461, 841.705017 947.569336, 840.207581 947.195068, 838.914246 947.964966, 838.381409 949.644409, 836.880493 951.110291, 835.040649 950.587463, 834.016479 951.300842, 832.910522 951.020813, 832.100037 949.979431, 830.225403 949.504089, 828.515137 948.483948, 827.103210 948.502930, 825.659668 947.001770, 824.390198 946.584839, 824.310608 945.286499, 823.107849 943.628113, 821.679688 943.351196, 820.204407 943.187561, 819.124573 941.905518, 818.142273 940.818420, 817.594788 939.287109, 816.124268 937.854919, 815.284607 937.020264, 814.359741 936.266357, 813.049622 934.620972, 810.753235 934.845459, 808.699585 934.281067, 806.907593 934.307495, 805.049438 933.756836, 802.554382 933.125122, 800.815735 932.200439, 799.662231 931.155762, 796.705811 931.336731, 793.839172 931.589905, 790.900940 932.567383, 789.436462 933.580139, 788.326294 933.781982, 788.065125 932.993225, 787.043884 933.534302, 786.103210 933.722534, 786.263123 933.243103, 784.891479 932.765808, 782.828308 933.142700, 781.276611 932.241577, 778.547913 932.446350, 777.210388 931.085388, 773.812561 930.708008, 769.949158 930.574646, 767.326355 930.631592, 764.902405 930.397278, 761.295288 930.384583, 758.909912 931.143311, 756.246216 931.473145, 753.346069 932.017578, 751.662170 932.417969, 751.302490 931.414246, 748.704590 931.175903, 745.830750 932.142456, 743.075806 931.617004, 740.026978 931.326904, 737.364624 932.331909, 735.156128 933.227661, 732.936401 933.202026, 731.126038 934.225769, 728.993591 934.436218, 726.246643 935.498352, 723.249207 936.122742, 720.824036 935.797791, 717.551636 935.690552, 713.724731 937.158447, 712.352478 939.279053, 710.611450 941.439087, 709.116882 944.088928, 708.758606 946.219604, 707.499634 948.108154, 707.834167 950.447449, 708.198181 952.026611, 707.596863 954.032349, 706.885986 956.999084, 706.229919 959.929382, 705.424927 962.749634, 704.513000 965.441101, 703.519653 967.378723, 703.257324 969.418030, 702.079834 971.844727, 701.475220 974.683533, 700.071594 976.436768, 699.055298 978.671692, 698.269531 981.773193, 697.258179 984.315125, 695.960815 986.355774, 694.683105 987.825928, 693.737732 989.580078, 691.448425 991.046082, 689.932983 993.262878, 687.285706 993.909058, 686.683716 996.268372, 684.564026 997.087036, 684.437317 999.218018, 683.429260 1000.361877, 682.160706 999.474060, 681.264099 1001.145447, 679.472351 1001.140686, 676.403137 1001.348206, 675.720093 1003.309937, 674.012146 1004.188293, 673.977112 1002.321289, 673.550110 1000.549866, 672.923218 998.736816, 672.067383 996.708984, 671.001648 995.297180, 671.427185 993.203003, 668.887207 991.889709, 668.013000 989.030823, 665.214966 987.501221, 662.671143 986.116943, 660.951416 985.277832, 659.589111 984.485229, 657.579285 983.314331, 654.986816 981.790955, 652.892578 981.767151, 650.646912 981.041748, 648.498413 977.905518, 646.678528 977.225220, 646.237793 975.681335, 643.381775 974.196411, 642.193726 974.745972, 641.603699 973.853271, 640.282593 973.301575, 639.218445 972.136658, 637.860413 970.739502, 636.683105 970.901855, 636.076843 970.324280, 635.298645 969.250549, 634.733521 966.808594, 633.447693 966.718384, 633.417358 965.677490, 632.752869 964.572144, 631.547424 962.690308, 628.436279 959.902222, 625.922485 958.198242, 624.554871 958.108948, 623.780884 956.131897, 621.311768 954.601990, 620.415894 952.076660, 620.024597 949.553040, 618.031311 949.219604, 617.295532 947.335999, 615.102844 947.220093, 613.159363 946.838318, 611.418762 946.156555, 609.486694 945.357666, 607.540833 945.053650, 605.942261 943.651733, 603.486816 943.195312, 601.291992 942.593750, 599.041870 941.958801, 596.618225 941.622681, 594.213989 941.424683, 591.545166 941.220459, 588.405640 941.006836, 586.280945 940.134399, 584.514465 939.689453, 582.719604 939.685913, 582.277649 938.117432, 580.915771 936.678955, 579.519775 934.543823, 578.034302 931.866028, 577.340576 929.171631, 575.602844 928.320374, 575.294006 926.681274, 575.210815 924.747253, 572.967896 923.459717, 570.644409 922.539429, 569.972900 920.816711, 567.934753 918.752869, 565.921692 917.428162, 565.179443 915.796204, 561.458496 914.300842, 558.292053 912.825806, 555.919373 911.191895, 554.828369 909.433472, 551.263611 907.365540, 549.775940 905.409546, 546.103760 902.022400, 542.663269 898.791138, 540.242432 894.063843, 537.168457 890.307129, 535.337952 888.353760, 533.838745 885.829712, 532.351501 882.835510, 528.860901 879.271973, 527.901611 877.136475, 525.335571 873.433838, 525.239380 871.682983, 524.651611 872.905762, 523.488647 865.944519, 518.743164 858.198914, 515.254578 856.154907, 511.777466 855.273743, 508.686737 857.539490, 506.468750 858.523315, 504.275665 858.466675, 501.009674 859.869629, 497.212524 860.503662, 492.840576 861.168091, 488.119415 861.260010, 483.660065 861.258423, 479.369171 860.561646, 475.703491 859.438721, 471.973907 858.279419, 468.303406 856.809814, 465.217163 856.908203, 462.060394 855.325562, 459.120636 853.744324, 455.956909 852.107483, 452.854401 850.191650, 449.945465 849.935791, 447.173126 847.752197, 444.384705 845.602966, 441.798431 843.660034, 439.764526 842.042786, 438.165649 841.279053, 436.608490 840.945190, 435.522400 839.465271, 433.094086 837.353516, 429.844116 834.759399, 426.659485 832.292664, 423.437408 829.254517, 420.840576 826.101685, 418.455322 822.888672, 416.093323 819.385010, 414.254974 816.056030, 412.480164 812.841431, 410.852448 809.885681, 409.558685 807.066467, 408.309326 804.168152, 406.794281 801.231567, 405.252686 797.646851, 403.834534 795.256775, 402.596893 792.760620, 402.361053 789.304382, 401.875763 785.390930, 400.022278 783.353882, 400.108978 781.093262, 398.098083 777.292542, 397.255524 774.142456, 395.107788 769.732971, 393.468750 765.899902, 393.142151 762.884277, 392.356506 758.912598, 391.773987 754.094727, 391.045105 749.024292, 389.625763 746.540039, 388.216400 744.873047, 385.832916 743.293335, 382.463776 742.614258, 380.446381 739.247192, 378.332184 735.366333, 377.039856 733.853271, 376.705292 731.720337, 374.286407 730.717773, 372.563965 730.475220, 371.076477 730.523804, 369.598053 729.333740, 368.189392 729.668579, 367.379395 728.347046, 366.237000 727.416748, 364.735229 726.299805, 363.556091 728.141907, 362.007233 726.968384, 358.499390 727.533813, 355.479797 728.452393, 353.182373 729.423462, 351.504547 728.064941, 349.599030 729.739990, 347.802643 728.816284, 346.237671 730.160583, 345.224640 729.206055, 344.930603 727.860840, 343.648285 728.095337, 343.776703 727.327026, 345.333405 726.201904, 345.308136 723.690002, 345.240295 721.882324, 345.759033 719.720703, 342.953461 718.209106, 339.787354 718.773865, 338.203674 718.933533, 337.507263 719.304565, 338.025330 717.281616, 335.474640 717.033813, 333.151672 716.257568, 331.332275 718.000854, 329.489746 718.042969, 328.534790 719.714722, 327.297424 719.179321, 325.295990 719.708740, 323.823364 719.369995, 322.402435 720.587646, 320.409271 720.987244, 319.215302 722.287842, 317.515045 721.721558, 315.892792 723.491516, 313.947754 722.932129, 310.033813 723.664307, 307.309662 724.903198, 304.993622 725.691284, 302.317780 725.501709, 301.483612 726.817993, 299.697662 726.530029, 297.410034 724.970459, 295.851074 725.207764, 293.986450 725.309387, 291.814758 724.996582, 290.947815 723.982544, 288.720093 724.501343, 286.784760 724.927734, 285.645630 725.982056, 283.978882 726.521362, 281.621613 728.363953, 280.723785 731.743225, 279.681610 729.886658, 277.915710 729.012817, 278.005951 732.473755, 277.013489 731.302368, 276.480469 732.065430, 274.755341 729.223755, 271.649323 728.890137, 269.584167 731.769531, 268.623688 734.028076, 267.937073 735.632080, 266.412994 736.530396, 264.388245 737.857910, 263.452545 738.786377, 262.579498 737.599243, 259.994659 737.187134, 257.133759 737.120728, 253.622177 737.360352, 249.326706 738.000122, 244.565659 739.066162, 241.795395 741.262085, 238.938553 742.955078, 235.952942 745.335083, 234.011490 748.169739, 231.779724 749.608398, 229.000992 752.114441, 226.475159 753.229004, 223.481567 756.214966, 218.264389 757.231689, 215.370010 758.712158, 210.480087 759.203003, 207.461578 760.500671, 203.390625 760.579590, 199.350800 760.857971, 195.765427 761.457764, 192.422791 761.797058, 191.397934 763.323975, 189.387329 763.790588, 187.818085 763.609619, 186.652145 762.993408, 184.794449 763.106506, 182.647293 762.499023, 179.134933 763.188354, 176.098587 762.701538, 174.278809 763.556702, 172.489761 762.007446, 169.817429 762.817261, 168.304916 761.572388, 166.152756 760.827637, 165.023178 759.571899, 163.068634 760.627075, 161.278992 761.413879, 158.731094 762.429749, 156.446915 763.538330, 154.318588 763.934814, 151.899734 765.067993, 149.814850 766.122009, 148.170029 765.682129, 146.089386 764.868103, 143.491333 765.950684, 141.018204 766.608521, 137.686020 767.482300, 134.435699 767.132080, 130.675064 766.162598, 126.582138 767.192200, 122.839836 766.391113, 118.795082 766.352417, 115.383987 764.902466, 111.593803 764.975220, 107.263649 764.645508, 104.759781 765.183350, 102.310196 764.421631, 100.811081 765.627563, 98.093735 765.053955, 97.128380 766.508179, 94.457428 766.421387, 91.753769 766.333862, 90.098022 767.013672, 89.638840 768.291748, 91.229767 769.036987, 90.732262 770.873718, 90.012604 772.838745, 91.898094 773.910095, 93.848404 774.845642, 93.967018 776.978516, 94.364037 779.368469, 96.961098 780.552979, 94.792381 781.696838, 92.853401 782.003906, 91.162086 781.289429, 89.585938 782.095642, 87.909691 782.973145, 85.857811 783.545776, 83.850861 784.662048, 81.779671 786.080872, 79.308014 786.608704, 76.203102 786.311401, 73.329994 786.088440, 71.088768 785.570007, 69.001030 785.407898, 67.066971 783.668945, 64.609802 781.534790, 62.617420 779.598633, 60.983444 777.734863, 59.459805 776.054932, 58.080193 774.688293, 57.940792 772.869812, 57.956161 770.696838, 55.883297 768.912720, 56.252731 766.227478, 54.068249 764.370117, 52.343834 762.496460, 50.461990 761.293152, 48.633545 759.879028, 46.476448 759.611694, 45.545086 758.407471, 44.778931 757.332214, 43.539997 756.132080, 41.454227 754.024292, 40.006248 752.011169, 39.070057 749.591675, 36.386887 748.473083, 34.871029 747.623535, 35.605759 746.288574, 33.601463 744.349121, 31.561207 742.710571, 31.154533 739.477661, 29.479279 738.332214, 28.462698 737.742981, 28.032776 736.569946, 26.470320 735.535889, 26.512486 733.917480, 25.826620 732.118042, 23.664305 731.250732, 22.958441 729.110229, 22.432171 727.487122, 21.731922 725.682373, 21.045172 722.646729, 20.208282 719.578735, 17.841448 717.317444, 17.293013 714.357971, 16.754921 711.004272, 14.191548 707.169495, 11.931110 702.108276, 9.725054 696.488892, 6.144213 691.507019, 4.460781 688.747314, 4.435462 686.959717, 4.486493 683.732544, 3.981996 680.065613, 3.003441 676.791626, 2.107049 672.932251, 1.299813 669.100098, 0.468540 666.298218, 0.419183 663.422974, 0.187968 659.677979, 0.055760 655.647705, 0.194568 651.638550, 0.403716 648.693726, 0.863784 645.829346, 0.000000 644.463745, 0.429330 642.682983, 0.178609 640.436279, 0.961511 637.977905, 1.301488 633.717773, 1.758304 630.709717, 2.470571 627.831909, 1.814655 625.223022, 1.825886 623.385010, 2.110004 621.406372, 2.199851 618.150146, 2.592730 615.850464, 3.972538 613.859680, 3.882692 610.781311, 3.857768 607.173523, 3.809593 603.635925, 3.627931 601.584351, 4.652393 600.697632, 4.718202 597.201538, 4.610229 595.009888, 4.517821 592.837158, 4.601461 590.312866, 4.828638 588.738647, 5.049903 587.360474, 4.817998 585.015076, 6.227360 583.199707, 6.795598 578.827515, 8.142896 575.276367, 8.416374 572.325073, 9.558858 570.174072, 11.177763 568.103271, 11.156878 565.471741, 12.372066 564.178528, 14.265041 561.679321, 15.762082 557.952576, 16.106493 555.748840, 17.174400 554.448486, 18.390377 550.285767, 19.783386 546.229614, 21.707687 541.479614, 23.090057 536.894287, 23.657900 534.392761, 24.409672 531.332031, 25.535902 528.175842, 27.174114 522.509521, 27.130964 514.930481, 26.326488 508.704773, 25.252472 505.711182, 24.637735 503.990906, 23.055872 501.542358, 21.304564 497.023865, 19.752550 492.649231, 18.513226 488.341553, 17.249863 487.080627, 17.036085 484.288513, 15.254136 479.994080, 14.145640 479.059143, 13.549622 478.340088, 13.717590 476.804810, 13.366580 472.007446, 12.368126 469.571594, 12.093957 465.105042, 11.011075 460.961365, 10.911574 457.192566, 10.475348 450.710083, 11.026050 445.050598, 11.114122 439.164978, 11.405433 434.114868, 11.489466 428.948120, 11.707185 423.345886, 10.235167 419.488770, 9.858838 415.006775, 9.557775 409.743713, 8.921561 407.067810, 9.174943 405.026550, 8.607593 400.985840, 7.655145 399.648132, 7.327680 397.440552, 7.992758 395.293213, 7.532099 394.241211, 7.396542 393.881714, 8.041227 392.413269, 8.890234 388.799683, 8.485532 385.748840, 7.119516 384.898132, 7.221776 382.441406, 6.451581 381.096741, 6.822985 380.093872, 7.802032 378.576904, 6.762201 376.489136, 7.438116 374.222717, 6.122441 371.367615, 6.668118 367.679382, 7.570225 364.136292, 8.156096 360.376038, 8.870334 356.657288, 9.061059 353.048645, 9.052981 350.210083, 9.410987 347.333740, 9.214546 343.338135, 8.277960 340.045044, 8.625030 337.532043, 8.632320 334.193970, 8.728077 330.206421, 9.399362 325.661255, 8.961066 322.216736, 8.809549 320.044006, 8.967667 318.983093, 9.221246 318.090820, 8.960475 317.295654, 9.763376 316.032898, 9.416602 314.495789, 9.788990 312.927795, 9.986415 310.383362, 10.122663 308.398926, 11.200619 305.087524, 11.723933 301.841492, 12.269216 299.155884, 13.342937 294.811340, 13.320376 291.584412, 13.553365 289.316528, 14.210857 286.178894, 15.209805 282.754150, 14.988145 279.856934, 14.868941 277.189514, 14.372423 275.236084, 15.115032 273.039307, 16.216436 270.780884, 16.128166 268.198303, 14.809044 267.146729, 15.813507 265.455933, 15.074641 261.999634, 14.611028 260.008118, 15.893896 258.709778, 15.224483 255.828064, 16.489914 253.316772, 18.078970 250.812683, 19.784470 248.605347, 19.291695 246.361816, 20.712189 244.370178, 22.324198 242.152466, 23.910101 239.909363, 25.033373 237.340210, 25.795687 234.717834, 26.334270 232.484985, 24.908850 231.130798, 24.957518 229.334351, 23.211823 227.989441, 22.944057 225.756165, 21.411156 225.021301, 20.685688 223.358215, 19.727329 221.362061, 18.646418 219.066467, 17.730225 216.526978, 17.093616 213.862732, 16.250620 212.618469, 16.862698 212.172974, 17.310646 210.671692, 18.029514 208.915588, 18.590067 207.594788, 19.803877 206.970581, 19.987017 206.231689, 22.043823 206.577393, 25.009928 204.000977, 26.108868 201.180786, 25.484575 199.793701, 26.953047 198.270081, 26.429140 196.042419, 25.838049 193.950562, 27.240120 192.441589, 26.842316 190.543579, 25.701506 189.973877, 26.596420 188.835022, 28.376595 187.378784, 29.795218 185.204773, 31.026957 183.703186, 31.308416 181.048706, 32.722309 178.214111, 32.428734 176.291077, 31.625832 175.737976, 32.385189 174.635498, 33.243652 173.035950, 34.111969 170.971252, 35.334053 169.116577, 35.624870 167.117615, 36.813656 165.312805, 38.310894 162.852356, 39.666073 159.835327, 41.763863 159.153931, 42.798077 157.057129, 42.405594 155.717224, 43.326221 155.168945, 44.805233 153.499817, 46.633286 151.498840, 48.871952 150.985229, 49.628944 148.783569, 50.217476 147.256958, 51.812344 146.029480, 52.937881 143.455444, 53.356968 141.030884, 54.860115 139.409912, 54.126865 138.062256, 55.536522 136.561340, 56.159931 133.997681, 55.527264 132.714355, 55.879555 131.380798, 56.812103 130.389954, 56.579704 128.987793, 57.832527 127.987061, 57.273056 126.414490, 58.338894 125.229309, 58.437214 123.720825, 60.176208 122.849182, 60.007355 121.165527, 61.597492 120.207397, 62.413300 117.945068, 64.573151 116.034302, 66.672318 114.107483, 67.338379 111.618835, 66.833389 110.697021, 68.133301 109.564758, 70.026085 107.708862, 70.194244 105.192871, 71.869408 103.139587, 72.099342 101.155090, 71.554352 100.408142, 72.625809 99.584961, 74.186684 98.051453, 75.917801 96.651062, 77.692657 96.520325, 79.069901 96.595398, 80.299377 97.360107, 82.279930 97.915833, 84.340088 98.847351, 86.709183 99.493408, 88.267105 100.377625, 89.748978 100.425476, 91.481468 101.012512, 93.043732 101.497803, 94.613281 102.240356, 96.451973 102.628418, 98.240814 103.006958, 100.080002 103.234375, 102.175720 103.467041, 104.803520 103.406067, 106.983276 104.511719, 108.126747 105.008057, 108.485245 105.851807, 109.617386 106.374023, 111.113930 105.775269, 112.608215 106.590881, 114.003983 104.682739, 116.285301 104.556519, 118.710556 104.277039, 120.981735 104.272522, 122.014862 103.262451, 122.780136 104.168457, 125.310310 104.344543, 127.819992 103.982849, 130.241302 104.777405, 132.585083 104.406494, 134.418365 105.143372, 136.445312 106.401428, 138.610977 108.018860, 140.953186 109.468506, 143.660385 110.971191, 146.242081 111.807861, 148.696594 112.916870, 151.828506 114.180115, 155.175278 114.569763, 157.892532 114.886169, 160.412155 115.504578, 162.795837 116.131897, 165.145035 116.594543, 167.534042 117.178711, 169.760880 117.880432, 171.659668 118.892822, 173.047958 119.691589, 173.731155 121.215332, 175.325241 121.392212, 176.177094 123.144714, 178.260605 123.374268, 180.479263 123.105042, 182.370667 123.194397, 184.526978 123.732666, 187.086990 124.065552, 189.803665 124.410461, 192.359344 124.852600, 194.741455 124.945801, 196.997849 127.413818, 198.960876 126.157227, 200.760651 127.666992, 205.035431 127.773376, 208.459045 128.802002, 211.623062 129.326294, 214.650055 129.388428, 217.347015 131.037781, 219.228455 129.969360, 221.032471 131.123291, 225.355331 131.098694, 228.084900 132.181824, 230.181808 133.017151, 233.350845 132.956665, 236.807465 133.402649, 237.281525 132.640442, 239.206909 133.101685, 241.264603 133.599487, 244.241043 133.445923, 247.600525 133.144165, 248.788620 133.809204, 251.316925 133.988708, 254.621429 134.216370, 258.768829 133.487488, 261.521362 133.709900, 269.145660 132.005310, 276.226746 130.382446, 282.618530 128.015320, 283.526642 127.034119, 286.915436 126.386902, 288.926483 124.867249, 292.314911 123.240479, 295.172760 121.207336, 299.359772 119.210632, 304.273315 116.913635, 307.748077 114.297668, 311.003510 111.727844, 315.007965 109.771729, 317.199554 107.298401, 319.715240 105.145752, 322.068481 102.586731, 324.595398 100.612366, 327.304962 97.935974, 330.449371 94.681274, 333.290070 91.532593, 335.802277 88.600281, 338.292786 87.007690, 340.587708 86.011414, 342.217896 83.719421, 344.865997 82.003113, 347.306458 80.159668, 349.255096 79.347534, 351.102509 78.182678, 352.842743 76.172852, 355.197784 73.953186, 356.957977 71.322327, 358.963013 68.783020, 359.496368 66.744019, 361.266052 66.214417, 363.750061 63.444275, 365.869324 62.762024, 367.940338 62.259216, 369.916901 61.959045, 371.609589 62.359375, 374.682190 59.971680, 375.598175 58.536316, 376.864807 58.218323, 378.802979 56.212158, 380.721100 54.604980, 382.800354 53.126404, 385.304169 51.599121, 388.390808 49.756226, 390.848907 47.468689, 393.799072 45.280640, 396.028870 42.053711, 399.134216 40.168518, 401.811615 38.466614, 404.437866 37.043762, 406.305359 36.324646, 408.339996 36.114014, 409.730988 34.088928, 412.088257 32.973328, 414.414307 31.100220, 416.739838 29.605286, 419.051697 28.208923, 421.585510 27.010986, 422.574402 25.355286, 424.326782 25.638550, 425.699768 23.885071, 426.846375 23.382019, 427.824249 22.847717, 429.772186 22.484253, 432.338379 21.865417, 433.666504 19.914307, 436.025909 19.737000, 436.530304 17.667053, 437.355713 17.304993, 438.512482 17.392700, 440.319489 15.794006, 442.549255 14.492493, 444.355042 13.896362, 446.036896 13.953308, 447.384186 13.053894, 449.100250 12.320129, 450.989563 11.675842, 452.998901 10.870178, 455.268005 9.922974, 455.943512 8.256592, 457.789154 8.176453, 460.274200 7.215088, 462.355835 6.034485, 462.327972 4.405823, 464.145081 4.963806, 464.746216 3.542236, 466.863922 3.655090, 468.932770 2.457581, 470.657990 1.676453, 470.873688 0.000000, 472.169220 0.744385, 473.648712 2.212463, 475.543518 3.538696, 477.175262 4.296814, 476.924347 5.778137, 479.146820 6.108765, 479.372803 7.579590, 479.744263 9.801025, 482.121399 12.375977, 483.117035 15.536255, 486.540558 16.569702, 489.520294 17.461365, 492.028687 18.361816, 494.373474 19.307861, 496.744873 19.976379, 498.114288 22.573853, 500.295837 25.493225, 501.899078 25.661133, 503.165039 27.033630, 505.211548 29.700134, 507.079071 32.015137, 508.650879 31.991333, 509.066223 33.558228, 511.553284 34.628296, 514.417297 35.836182, 516.038086 36.123230, 517.687073 36.880432, 520.423401 38.030212, 523.278625 38.184204, 526.653625 38.235901, 528.183716 37.926880, 529.430359 38.551880, 531.338623 39.514343, 533.849731 39.567139, 535.790283 40.830322, 539.437500 40.907471, 543.387695 41.088013, 547.176453 41.131409, 551.018066 41.350098, 554.170776 42.921021, 558.039368 43.324707, 562.044067 43.740479, 566.026062 43.991211, 569.886536 44.173340, 573.012634 45.538574, 576.628540 45.706360, 579.971130 45.979736, 583.493042 46.383545, 586.867737 45.639282, 588.587524 44.917908, 590.735596 45.609009, 593.546631 45.336121, 595.986023 45.142761, 598.004333 44.851135, 599.854797 46.589050, 601.811340 46.098328, 604.043457 47.604431, 605.908936 47.874207, 608.111389 47.437744, 610.141846 45.697266, 612.418152 43.574341, 615.739746 43.369873, 617.401245 42.749207, 619.005371 43.056580, 619.920776 42.036743, 621.443237 42.725769, 623.750671 42.082642, 625.558960 40.804810, 626.548096 39.181946, 628.696716 39.617371, 630.076172 38.442688, 631.996399 38.325256, 633.842957 36.469849, 634.668091 34.549561, 637.297668 33.758667, 638.215759 31.840393, 639.530823 31.984314, 641.265442 32.633728, 641.604980 34.935730, 644.058105 35.744568, 646.299805 37.000732, 646.263123 40.378357, 648.988647 40.696960, 650.983032 40.908813, 652.073181 40.961121, 651.705322 42.886414, 652.894653 43.446716, 653.419434 44.810364, 654.120117 44.573303, 654.436707 45.405579, 654.453857 46.388977, 654.960327 47.633179, 656.428711 49.366699, 658.190369 48.850464, 658.601501 50.665710, 660.784973 51.244690, 662.657288 52.873474, 665.292358 54.420715, 667.746399 55.824951, 670.058167 55.467346, 672.350952 56.575867, 675.003784 57.784851, 677.387878 58.966553, 679.747070 59.567078, 681.466553 59.998596, 681.664429 61.715210, 683.387207 61.869751, 684.067749 63.116028, 685.355713 65.397827, 685.259399 67.815979, 686.507446 69.204529, 686.730774 70.984619, 687.884216 71.873169, 686.282166 73.645264, 687.354919 76.673279, 688.193054 79.965210, 689.247864 83.227173, 689.173523 85.882935, 689.742249 87.508606, 690.784607 89.890320, 691.532959 92.158081, 692.518127 93.591858, 691.936829 95.511841, 692.908142 97.008972, 694.045349 98.663025, 695.555542 100.918945, 696.807129 102.863647, 697.833069 104.827332, 698.695129 106.827820, 699.349426 108.704529, 699.703247 110.530212, 699.890320 112.621033, 700.749573 113.859253, 699.956909 115.629089, 700.084290 118.114502, 701.626526 118.802979, 702.855103 119.853333, 703.467163 122.786499, 705.715210 124.438049, 706.717163 126.477539, 708.108093 129.015076, 709.445801 131.599060, 710.906433 133.954956, 712.424011 136.189880, 713.496094 138.322693, 715.254395 139.909424, 716.161255 142.339111, 715.429321 145.272583, 716.484619 148.769958, 717.095947 150.743835, 718.339905 153.429199, 718.687927 156.488464, 719.686890 159.693604, 720.727722 161.843872, 720.933228 163.956543, 721.145874 165.629333, 721.069031 167.562317, 721.839539 170.859802, 723.490295 173.866028, 724.397522 176.962769, 725.497253 180.223022, 726.551025 183.735107, 727.825867 184.828735, 727.744080 187.524963, 729.708557 192.069397, 730.178955 194.346619, 731.288757 196.258118, 732.606079 198.910156, 735.228760 202.042542, 737.278076 203.517395, 737.888550 204.924866, 738.908508 205.472046, 740.155762 207.363403, 743.161865 211.528687, 745.143188 211.332336, 745.121582 212.583862, 746.000916 214.817627, 748.215637 218.897705, 749.933899 222.535889, 750.988159 224.675171, 752.598999 228.211304, 754.359802 234.732849, 755.687988 237.450439, 755.945007 240.306152, 757.501160 244.695007, 759.379883 248.889465, 761.060608 253.229858, 762.855957 257.376892, 766.221069 261.185547, 770.466125 264.028076, 772.860229 263.909180, 775.181152 263.736267, 777.751343 263.562073, 778.736694 264.629089, 783.251953 264.892761, 786.419861 264.144043, 790.271240 263.959778, 794.212158 263.941772, 798.415710 263.767029, 801.178284 262.978760, 804.147278 262.816650, 808.464600 261.797363, 808.446289 260.076538, 810.110352 259.952637, 811.188721 258.336243, 811.497375 257.041748, 812.401978 257.521423, 813.541687 256.094910, 815.370361 254.046082, 815.529236 251.645752, 817.343384 250.128601, 817.640137 246.890930, 819.605347 245.374329, 819.263977 242.421631, 820.043152 240.406799, 821.334167 239.173523, 822.981201 237.626221, 823.370667 236.193604, 825.254517 235.985657, 825.793152 233.476257, 826.451172 231.713928, 827.933228 229.668640, 828.345215 228.497375, 830.235718 228.178406, 832.078064 226.578857, 834.320251 226.153992, 835.759277 224.209290, 837.931580 224.215820, 839.961548 222.954041, 840.350891 221.237366, 842.312256 222.088379, 843.729614 220.379517, 846.039673 219.794250, 846.524963 218.013184, 848.112854 216.714417, 848.833374 214.822571, 848.772827 213.721313, 850.033203 213.695923, 850.599365 212.228149, 850.496521 211.189270, 851.675964 211.039917, 853.613770 209.903625, 855.638855 209.231689, 856.293152 207.503662, 856.223450 206.306458, 857.471191 206.212708, 859.648621 205.355530, 861.838318 204.751770, 862.537842 203.209229, 862.491394 202.221680, 863.650208 202.110046, 865.416809 201.419373, 867.376953 201.346497, 869.265503 201.119446, 871.249329 201.104553, 873.423462 201.158142, 875.870361 201.065125, 878.428833 200.542175, 880.957825 199.854675, 883.312805 199.070679, 885.438293 197.925293, 887.215515 198.750916, 888.513245 197.856262, 890.296997 197.202637, 892.512268 198.395264, 894.468994 196.918030, 896.944580 197.851562, 900.086060 197.830322, 902.882812 197.642212, 905.216125 198.968750, 907.893005 197.564087, 909.248901 196.169006, 909.559204 194.899780, 910.562073 194.231018, 912.114136 194.352295, 913.708984 193.519470, 915.230225 193.195862, 915.007996 192.155701, 915.888062 192.170593, 917.787292 191.755249, 919.919617 190.864929, 921.994812 190.220947, 923.849365 189.542969, 925.961121 190.754822, 926.932800 188.117737, 928.184570 189.566345, 929.756165 188.868347, 931.416626 189.777039, 932.995850 189.066956, 934.425598 189.906982, 936.900085 189.128357, 937.884094 187.398315, 939.088318 187.283936, 940.046082 187.031250, 940.076233 188.302551, 941.407104 187.935608, 942.030029 189.731812, 943.593628 189.846436, 944.954834 190.163635, 946.821411 190.291504, 948.034851 192.999084, 950.128784 193.351990, 952.310669 193.371887, 954.156067 193.845032, 955.576843 192.459839, 957.128479 192.863220, 955.689575 195.061646, 957.107605 197.490723, 956.949402 200.241882, 957.066223 202.979492, 956.991821 205.687256, 959.106262 209.203308, 960.976379 211.207153, 961.867554 212.077515, 960.230164 212.853760, 962.944336 215.905212, 965.100952 218.458374, 966.256958 219.641052, 966.829590 220.154297, 967.719666 221.140320, 969.485474 222.905334, 971.242188 222.695129, 971.999329 222.563110, 972.162048 223.189575, 971.785217 224.643433, 973.783813 226.971008, 975.695129 228.566467, 977.278625 228.454407, 977.754456 229.815247, 980.349976 231.221924, 982.795898 232.982422, 984.295410 232.936462, 984.986877 234.481079, 987.239929 235.934631, 988.740051 237.794434, 990.143616 238.280273, 990.236023 240.080017, 992.002991 241.055847, 993.378174 241.619324, 994.458557 243.461975, 996.208984 245.104919, 997.130493 246.997559, 999.845520 247.289001, 1002.287292 246.667664, 1004.028381 247.755798, 1005.493652 247.159668, 1007.241150 246.872681, 1006.600891 245.140686, 1008.329956 244.591614, 1010.807800 243.254395, 1012.362976 240.471558, 1013.000183 237.651062, 1014.086975 239.272827, 1014.592651 241.581726, 1015.413208 243.444641, 1016.310303 245.450989, 1018.039246 244.373169, 1018.791992 245.692749, 1018.199829 247.526917, 1019.337463 248.296936, 1019.862732 249.219421, 1021.669922 250.090210, 1022.732422 251.452881, 1021.316833 252.446960, 1021.541565 254.892456, 1024.334351 256.576965, 1025.939697 257.785034, 1026.926147 258.815613, 1027.630249 259.858337, 1027.990479 261.306396, 1029.238647 261.074585, 1029.468750 262.618774, 1029.952271 264.798523, 1030.097290 267.217834, 1030.074463 268.767761, 1030.219727 269.830811, 1030.958130 270.685913, 1031.325562 271.550720, 1031.979004 272.913269, 1032.738770 274.562317, 1033.559570 276.700623, 1035.926880 277.871948, 1037.328491 279.016785, 1039.004150 280.943359, 1040.950439 282.105774, 1041.611938 283.806030, 1042.037964 285.697632, 1044.495483 286.487122, 1046.462280 287.384033, 1047.421875 287.035095, 1048.085815 287.918579, 1048.767578 290.238708, 1049.719849 291.555969, 1050.046021 292.937622, 1051.206421 295.395691, 1052.708740 298.340881, 1055.092285 300.745789, 1055.280029 303.835327, 1057.483643 305.963379, 1059.461426 307.799438, 1060.609009 310.976379, 1063.300903 312.407166, 1063.747803 314.437622, 1064.639038 316.293701, 1065.614380 318.646667, 1064.696655 321.660889, 1066.668579 321.716553, 1067.251343 323.162415, 1068.791504 325.621155, 1070.831421 327.281921, 1071.979492 330.085754, 1073.630859 332.630920, 1075.045654 333.406433, 1074.456421 335.293152, 1076.342651 336.419800, 1077.743896 338.125427, 1078.798462 340.595276, 1080.412109 342.057251, 1081.015259 344.404846, 1081.293457 347.357056, 1081.072144 350.541687, 1082.297485 352.266785, 1082.998413 353.126343, 1081.638672 353.834961, 1082.026855 356.771240, 1082.039551 359.452515, 1082.524170 361.967407, 1081.823486 364.776672, 1082.984253 367.972168, 1082.523438 371.330017, 1082.340698 373.700195, 1082.034546 375.620422, 1083.642456 377.272156, 1083.904907 380.943237, 1085.023804 384.347900, 1084.712891 387.209534, 1085.319092 388.599426, 1085.449219 390.007874, 1084.556274 390.253052, 1084.695435 392.845703, 1084.681641 395.018188, 1085.294189 397.544861, 1086.160767 397.715271, 1085.935059 399.510864, 1085.962036 402.537109, 1085.017578 405.114868, 1085.724487 406.890320, 1085.575806 408.641724, 1086.576660 409.237000, 1086.386108 410.607666, 1085.647949 412.433838, 1085.661377 416.490601, 1085.050781 421.410889, 1085.459473 425.296021, 1084.370117 429.753540, 1083.830200 434.585815, 1082.942993 438.855896, 1081.775879 443.903992, 1080.489258 448.569092, 1080.352661 452.295105, 1080.306152 456.189209, 1080.736938 458.374817, 1079.869263 460.386902, 1078.437500 465.204895, 1078.334229 469.914917, 1078.875244 473.892944, 1080.115356 476.946228, 1080.889893 479.591187, 1081.818726 482.032654, 1081.584839 484.939697, 1080.333374 488.739258, 1078.096680 491.332458, 1078.366699 493.799683, 1077.055298 494.573120, 1076.843140 496.641785, 1076.766479 497.825806, 1077.255737 498.452942, 1076.344238 499.104492, 1075.717529 500.989502, 1074.932373 503.482849, 1074.868896 506.454224, 1074.686157 509.926758, 1074.687744 513.271606, 1074.737305 515.834473, 1074.011230 518.398560, 1073.588013 521.761658, 1074.008179 524.618774, 1074.941040 525.923096, 1074.545044 527.557007, 1073.917725 530.552124, 1075.514404 532.735535, 1076.140503 534.374756, 1075.649536 536.387329, 1075.841187 539.316650, 1076.279419 541.625977, 1075.805420 543.746826, 1074.889160 546.445557, 1073.565674 549.506653, 1071.833618 553.122803, 1070.950684 556.369385, 1069.428467 559.116150, 1068.689819 561.635437, 1068.602295 563.440247, 1068.140991 565.174744, 1066.757080 566.599121, 1065.110107 568.882446, 1062.890991 571.817566, 1062.088989 575.311279, 1060.014282 576.436401, 1059.090698 579.275391, 1057.483643 581.674622, 1055.254150 585.115601, 1053.382202 589.008545, 1052.242188 592.263306, 1051.969482 594.569092, 1051.099487 597.336609, 1049.935303 600.128418, 1048.230103 602.075806, 1045.969360 604.712524, 1043.918213 607.476685, 1041.844849 610.214355, 1041.522583 613.157593, 1040.411011 615.887451, 1039.775391 617.803284, 1038.748535 617.869873, 1037.921997 620.577881, 1036.166992 622.933228, 1034.783936 624.778809, 1033.315063 626.549805, 1032.917236 628.937866, 1031.790405 631.278198, 1030.011963 633.430969, 1028.872192 636.206482, 1028.216309 637.584900Z M1162.115967 630.625244 L1162.434692 632.353577, 1162.858398 637.219238, 1163.015381 641.609497, 1162.797241 643.070679, 1162.801025 643.787231, 1162.993774 644.575562, 1163.453369 646.564758, 1164.354858 649.382202, 1164.684937 652.179199, 1165.203857 654.690002, 1165.923462 656.729858, 1166.171265 662.327148, 1165.350708 664.469482, 1165.093994 667.820129, 1163.875854 672.851685, 1163.383301 677.300110, 1162.625122 677.400879, 1162.006592 678.756958, 1161.697998 680.349121, 1160.000488 681.750793, 1159.435913 682.872925, 1157.224121 685.338074, 1154.007080 687.619629, 1151.923584 688.014526, 1151.012451 689.524902, 1148.233521 692.897095, 1146.715088 695.946655, 1144.513306 698.505981, 1142.631958 699.228271, 1140.930176 701.944336, 1140.119385 705.305542, 1139.980957 708.471069, 1138.630981 711.086426, 1137.856689 714.019958, 1137.740112 717.249512, 1137.377686 720.502563, 1137.722168 723.336975, 1136.405518 724.627197, 1136.334595 726.231567, 1135.732178 726.725525, 1136.833008 728.114868, 1137.771851 730.760254, 1136.799194 733.881409, 1135.904785 736.440918, 1135.827026 739.504639, 1134.574585 743.943909, 1132.139893 745.442383, 1130.443237 747.292236, 1129.696045 749.859497, 1129.311279 752.905762, 1129.157593 756.735718, 1128.610596 761.206299, 1126.829102 766.045166, 1126.542603 768.826233, 1126.131348 771.097900, 1125.559692 774.053955, 1127.130005 776.232239, 1126.448242 778.943115, 1127.632324 781.452637, 1128.877075 783.909668, 1130.085205 786.424316, 1131.268921 788.939514, 1132.453247 791.756836, 1133.880859 794.717590, 1135.249512 797.275513, 1135.094604 800.357544, 1136.618408 802.803955, 1136.873169 806.631348, 1137.339600 809.951416, 1137.671021 812.383301, 1136.834229 815.016907, 1136.287720 817.435913, 1137.578491 819.207031, 1137.408325 821.359558, 1138.064575 823.447632, 1138.934204 825.742065, 1137.913208 828.189026, 1138.902466 831.117188, 1139.644775 834.262695, 1140.437378 837.328735, 1138.722412 839.339355, 1139.892456 842.168213, 1140.511475 844.660461, 1140.678955 847.245728, 1139.748779 849.322876, 1142.031860 850.084778, 1143.946289 852.165771, 1146.158203 853.244080, 1148.707642 854.547119, 1149.930420 857.246277, 1152.918091 858.654297, 1154.702271 861.568359, 1156.295776 864.079041, 1157.700439 866.247192, 1159.533813 868.038940, 1160.710815 869.647339, 1162.202393 870.700867, 1164.425537 872.867493, 1167.942871 876.744934, 1170.270874 879.686951, 1173.162842 882.333740, 1173.776001 884.351440, 1174.541260 885.607910, 1175.501221 885.191528, 1177.723145 887.136108, 1179.056885 887.403625, 1180.601807 890.032715, 1180.126221 890.796021, 1181.950684 891.960144, 1184.157104 892.149292, 1187.699463 894.784912, 1187.985229 895.979126, 1188.766724 896.797119, 1189.449463 896.729309, 1192.283936 899.006470, 1195.118652 901.204468, 1196.660767 903.301819, 1198.939697 904.945984, 1199.951416 906.644348, 1200.093262 907.588196, 1201.413696 907.343750, 1202.336426 909.649170, 1203.856201 911.863647, 1203.596924 913.606140, 1205.651489 914.949219, 1208.699829 918.334656, 1210.210815 920.529053, 1212.640747 921.859924, 1215.357422 923.270020, 1218.091309 924.165771, 1221.654175 926.018555, 1224.154541 927.876465, 1226.558716 928.609985, 1228.880249 929.352966, 1230.281738 930.005676, 1232.420532 931.132629, 1236.736450 932.509399, 1241.558228 933.926086, 1245.566406 936.105225, 1248.885864 937.936035, 1252.480103 936.904907, 1254.490112 938.340088, 1256.566895 939.628540, 1259.523315 940.706238, 1261.324219 941.546814, 1263.071411 941.528442, 1264.258179 942.535156, 1265.709717 943.145264, 1267.500366 942.752991, 1268.692383 940.652649, 1272.138672 940.188721, 1273.503906 942.104553, 1275.390259 941.466064, 1276.497314 942.914062, 1278.028687 942.619202, 1279.304443 943.651489, 1281.046631 942.897217, 1281.938110 944.590942, 1283.773560 944.241211, 1286.629272 943.915405, 1289.646851 943.977600, 1292.648193 943.878479, 1294.324951 942.262085, 1297.822998 942.245239, 1301.340820 942.099976, 1304.887817 941.962463, 1306.864624 942.925171, 1308.810181 943.164673, 1310.761597 942.897583, 1311.954102 943.701538, 1313.960815 943.193848, 1316.899536 943.860413, 1318.915405 943.062378, 1321.834839 943.572083, 1324.624390 944.337585, 1327.254150 943.033386, 1329.854126 942.121582, 1332.411621 942.542847, 1334.160278 941.704895, 1336.484253 940.872253, 1339.688965 939.972290, 1341.833008 939.967896, 1343.862183 939.169678, 1345.168457 939.351135, 1346.842773 939.827820, 1349.080811 938.159790, 1351.230347 937.999023, 1353.607056 937.703674, 1354.129883 939.388062, 1356.270142 939.692322, 1358.900391 938.659668, 1361.413208 938.687195, 1363.145996 939.824158, 1365.047363 940.825195, 1366.867432 941.605835, 1368.901123 940.644165, 1370.588013 942.131897, 1372.268921 943.705627, 1373.921387 945.181396, 1374.263062 941.797119, 1375.872070 939.653503, 1377.440552 939.677368, 1378.654785 939.063538, 1378.957275 937.077515, 1380.700073 935.705688, 1379.419922 934.547974, 1379.488037 932.530457, 1379.915894 930.249146, 1382.116577 927.799988, 1385.548340 928.112793, 1388.325562 928.385498, 1389.604736 927.113098, 1391.219727 926.375671, 1392.017090 924.283630, 1393.892090 924.211487, 1392.874634 921.990723, 1393.450928 919.460144, 1395.879639 919.737366, 1396.843994 917.713440, 1398.220947 916.870361, 1398.084595 915.349670, 1398.585815 913.523254, 1399.290527 911.087646, 1402.099609 910.720703, 1404.860596 910.430237, 1407.558105 910.031860, 1409.702637 909.801025, 1410.714600 910.136658, 1412.039917 909.097412, 1415.625366 908.446899, 1417.569824 907.130920, 1421.337158 906.855225, 1422.237549 907.984619, 1424.223633 908.909424, 1425.933472 910.338318, 1427.785156 909.312317, 1431.125610 910.274109, 1434.133057 911.359985, 1436.108521 912.705261, 1438.325073 911.870605, 1440.644409 911.269287, 1443.245972 910.354980, 1447.012817 910.227539, 1448.076050 911.646606, 1450.064819 910.919922, 1452.963013 912.109924, 1455.507202 911.388306, 1457.894287 912.083862, 1460.243042 911.480652, 1462.842773 912.170593, 1463.623413 913.632019, 1465.248169 914.429688, 1467.072021 914.908447, 1468.743042 915.704651, 1468.503418 917.555786, 1468.103394 919.381287, 1467.666260 920.683044, 1467.747559 922.085632, 1467.227539 924.596008, 1468.847412 925.467224, 1468.194214 926.941040, 1467.946045 928.569824, 1469.773438 930.078918, 1471.204956 931.221191, 1470.173096 932.777832, 1471.991699 932.679321, 1472.585571 934.662231, 1470.189941 937.432373, 1468.574585 940.509460, 1467.102783 943.589844, 1465.949463 946.814819, 1465.184814 949.858765, 1464.466309 952.763794, 1465.480713 954.955566, 1464.583374 958.308533, 1465.669678 961.342773, 1465.175781 965.364746, 1464.863770 968.958069, 1466.477173 972.132263, 1466.395630 975.747131, 1467.904419 978.637573, 1468.206665 981.903992, 1468.822998 984.996155, 1469.722290 987.522339, 1470.277100 989.149719, 1471.759033 989.742065, 1474.024902 993.635681, 1474.236816 994.655518, 1474.877441 995.365356, 1476.268066 995.742004, 1477.200928 997.317139, 1477.628540 998.108826, 1478.888672 998.023376, 1480.382446 1000.178040, 1482.054321 1001.482849, 1483.481323 1001.735901, 1485.392700 1002.132446, 1486.447876 1003.689087, 1488.556519 1003.573975, 1490.279053 1004.956726, 1490.696533 1005.999268, 1492.777588 1005.742493, 1494.257690 1007.007751, 1494.622437 1007.958740, 1496.836426 1007.616028, 1498.664673 1008.917297, 1498.486938 1010.256897, 1501.304688 1009.933899, 1502.506714 1011.679626, 1502.871948 1012.630554, 1504.324097 1012.130493, 1506.617432 1011.913330, 1506.284058 1013.267456, 1508.230591 1012.830872, 1509.067017 1014.052917, 1509.583130 1015.253967, 1509.780884 1016.423584, 1511.130615 1017.111511, 1512.030762 1017.632874, 1512.808716 1017.947205, 1514.356812 1017.365295, 1516.004639 1018.369568, 1518.103516 1019.992859, 1517.875977 1021.378906, 1519.193726 1021.937500, 1520.781006 1024.000000, 1522.076904 1021.864685, 1522.822632 1020.139099, 1524.367188 1019.402344, 1523.277222 1018.767517, 1522.647339 1016.667664, 1522.958008 1014.741272, 1523.279053 1013.867432, 1523.472534 1012.200256, 1522.181152 1009.340454, 1523.681152 1006.966980, 1526.017944 1006.027100, 1527.028320 1004.701050, 1528.133301 1003.808411, 1528.891235 1002.736511, 1530.057617 1001.030151, 1530.902588 999.696838, 1533.363281 998.699280, 1535.075195 996.770630, 1537.952881 995.968750, 1539.233887 994.548828, 1540.041260 993.231873, 1540.529785 990.697144, 1540.931030 988.208618, 1540.784180 985.650146, 1541.310303 983.622070, 1540.084839 982.346313, 1537.868530 981.454834, 1536.963257 979.450012, 1535.934204 977.497009, 1536.775757 976.224426, 1536.291382 973.151367, 1537.109253 969.953369, 1539.358887 966.523376, 1542.194824 963.599731, 1544.267578 961.281067, 1547.060791 958.756897, 1549.984131 957.575928, 1552.640259 956.842712, 1553.621460 955.652283, 1555.535767 947.199890, 1558.183838 941.009277, 1560.995605 936.475647, 1563.282349 933.848938, 1565.012329 931.856079, 1567.082153 930.884338, 1568.235474 929.710388, 1569.633911 928.708496, 1571.753540 927.747864, 1574.239136 925.682068, 1577.605347 923.387878, 1579.288330 922.683838, 1580.547607 921.369141, 1583.295166 920.239136, 1585.936279 919.426514, 1589.014282 918.279907, 1590.110107 916.841492, 1590.987061 915.222046, 1592.919678 915.357971, 1594.369141 914.962463, 1596.080811 913.517578, 1597.832642 911.891113, 1597.902954 910.389282, 1599.582520 909.470215, 1598.746216 908.885620, 1600.061157 907.645081, 1600.852905 906.903992, 1602.162109 905.984863, 1604.631714 904.249390, 1608.174927 902.942993, 1611.057495 901.040039, 1614.344971 899.086792, 1617.045166 898.231323, 1619.865601 896.231689, 1622.016479 894.845581, 1623.633789 893.677612, 1625.813599 891.526733, 1628.182739 889.216553, 1630.513550 885.693542, 1633.781494 883.357971, 1636.019409 880.428772, 1637.222290 877.440063, 1639.396973 876.407532, 1640.319336 875.354065, 1641.203247 874.664185, 1642.194824 873.073608, 1646.532104 869.612915, 1650.567139 866.278992, 1654.909912 862.864502, 1657.535278 861.510925, 1659.609985 859.387451, 1662.077026 856.330811, 1665.456177 852.413635, 1668.671509 850.120422, 1672.454712 847.156494, 1675.924561 843.931641, 1678.219238 841.115417, 1685.536987 836.254761, 1693.119629 832.850891, 1697.176514 831.938599, 1702.109985 829.720459, 1706.529419 829.247192, 1710.941895 828.216675, 1716.024536 825.999695, 1720.005981 824.775513, 1724.479980 823.943665, 1725.688110 824.319946, 1726.602173 823.634033, 1728.532104 822.359863, 1729.876221 822.989502, 1730.317017 822.124634, 1732.146240 821.302673, 1734.087524 819.933960, 1736.471436 819.143188, 1739.986816 817.728027, 1742.015137 817.014526, 1742.494995 815.203125, 1746.762573 813.186890, 1749.916382 812.063354, 1751.441895 811.554016, 1752.485352 810.582947, 1753.423828 809.502808, 1755.282593 807.897644, 1758.331055 805.363037, 1761.008667 803.051270, 1762.551636 800.621521, 1765.883179 797.232300, 1768.216675 795.715942, 1769.188354 793.140930, 1771.225952 792.461853, 1772.717041 789.812439, 1776.669922 786.368042, 1779.542603 783.655518, 1780.073608 784.496094, 1780.470581 785.192688, 1780.624268 784.456970, 1781.503784 783.910461, 1782.050049 783.173889, 1783.667236 781.943726, 1785.384888 780.243164, 1787.499146 780.574341, 1788.383789 780.772156, 1789.268677 780.125122, 1790.378662 780.767578, 1791.068115 780.718994, 1791.114990 780.232910, 1791.222168 779.339050, 1791.647339 777.710999, 1791.803833 775.779236, 1792.595337 774.300781, 1791.664185 773.377869, 1798.484009 768.012573, 1802.905396 765.006226, 1805.351318 763.296265, 1806.891235 761.148193, 1809.405029 758.676941, 1810.734131 758.803650, 1810.969238 758.038574, 1812.159668 756.696106, 1811.668457 754.665527, 1812.206909 753.601074, 1811.024170 751.234375, 1812.025269 750.614563, 1812.408936 750.118835, 1811.904175 748.668945, 1813.258179 746.666016, 1814.290039 746.411865, 1814.448364 745.507690, 1814.387695 743.650024, 1814.945557 742.562988, 1814.528198 741.881836, 1814.377075 740.868652, 1813.739624 739.057373, 1812.830933 736.464355, 1812.259399 734.508118, 1811.595581 732.302734, 1812.354492 732.487366, 1812.203613 730.982971, 1811.393188 728.849487, 1811.986084 724.902100, 1816.932129 720.771484, 1821.804932 717.931091, 1826.349487 714.188904, 1828.321167 713.394470, 1831.626587 710.934814, 1834.479126 709.659424, 1836.601929 709.253601, 1838.840454 709.426636, 1840.651001 709.360352, 1842.004761 709.308533, 1843.265137 708.492920, 1846.311646 709.161255, 1848.329834 709.540527, 1850.110840 708.935669, 1852.018433 710.121460, 1854.862793 712.264038, 1855.440430 713.879028, 1857.429077 714.991333, 1860.076660 714.574463, 1861.814453 716.128052, 1864.087402 717.279785, 1865.810181 718.841431, 1867.861694 720.645935, 1869.695312 723.282593, 1870.229248 724.465088, 1871.411011 724.615967, 1870.948608 726.313232, 1870.756714 727.499146, 1872.195435 727.425842, 1871.706421 730.443787, 1873.204956 730.974976, 1875.372314 732.173279, 1877.263428 732.826050, 1878.021362 735.126038, 1878.279297 736.377258, 1877.923828 736.715088, 1878.102173 736.792664, 1878.549316 736.668091, 1879.492432 735.829956, 1882.290283 735.469971, 1885.509033 737.058655, 1888.715454 738.211792, 1891.359863 739.121094, 1893.037109 740.286621, 1894.797363 739.760254, 1896.883789 738.963928, 1899.217163 740.010254, 1901.033203 738.687317, 1902.986816 739.516479, 1904.682861 739.811951, 1906.172852 738.904785, 1907.723389 739.995728, 1909.478394 738.167114, 1911.525391 736.018066, 1913.832764 737.166016, 1916.763184 735.505859, 1919.590576 735.104065, 1921.668701 737.411499, 1924.146118 740.042969, 1926.950562 741.919983, 1929.487915 741.298035, 1932.859863 742.588806, 1936.979370 742.614441, 1940.612183 742.951782, 1944.328857 743.472046, 1947.764893 744.209351, 1951.262939 744.698364, 1954.530151 745.121826, 1958.667358 746.619873, 1959.646240 748.035767, 1960.639648 748.157837, 1963.198853 747.686584, 1969.436279 749.285645, 1973.185181 750.677246, 1976.741211 752.526733, 1979.874634 754.622192, 1982.818970 756.709106, 1984.432861 758.579590, 1985.810791 759.345276, 1986.345337 758.393921, 1989.812500 760.364197, 1992.557861 762.069580, 1994.798706 763.269714, 1997.367432 763.975830, 1999.034424 765.275879, 2000.409790 765.918213, 2001.263428 764.837341, 2002.743042 765.579224, 2004.464600 765.022705, 2006.275513 766.340637, 2008.979248 766.752075, 2011.323120 767.341797, 2014.022461 767.059082, 2017.568237 767.119812, 2020.727417 766.978333, 2023.428345 767.773438, 2026.395996 768.941650, 2029.121704 768.340576, 2032.607422 768.212830, 2036.342896 768.866333, 2037.263428 770.015625, 2039.002808 770.033813, 2042.119019 770.505493, 2044.949219 771.836304, 2048.884766 772.379761, 2052.859863 772.933350, 2056.968262 773.190063, 2061.744629 773.369995, 2066.334229 773.255371, 2070.259277 773.199097, 2074.085693 771.126587, 2076.483154 770.995605, 2077.573975 769.919067, 2080.253906 769.224243, 2083.106445 768.390259, 2086.075928 767.517273, 2089.002930 766.656494, 2089.755127 768.054321, 2090.263916 769.781860, 2090.109863 771.729614, 2089.817627 773.552979, 2089.599854 775.898499, 2091.909912 774.446411, 2094.386719 773.410400, 2096.760742 771.774414, 2098.032227 772.687012, 2099.738281 770.706116, 2100.914307 771.999146, 2101.497314 772.561340, 2102.894531 770.968018, 2104.007324 772.053406, 2105.708496 771.269836, 2108.240723 770.144104, 2110.909668 769.336914, 2112.156250 770.391479, 2113.464844 769.896912, 2115.146484 770.519226, 2116.673584 769.902100, 2117.656250 770.850586, 2118.113037 770.627197, 2119.082764 769.793335, 2120.949951 768.213684, 2122.964111 766.036133, 2124.927002 763.857666, 2126.190674 762.374207, 2126.975342 760.709839, 2129.630127 760.103149, 2131.235596 758.104614, 2133.402832 758.116516, 2133.896729 756.290527, 2136.195312 755.801758, 2137.303223 753.989502, 2139.380127 752.027649, 2141.543213 751.247864, 2142.935303 749.293091, 2143.763672 748.372925, 2143.516357 746.733276, 2145.450439 746.740845, 2146.189941 744.922607, 2148.329346 742.516113, 2150.737305 739.827026, 2153.028076 737.198242, 2154.902344 734.376221, 2157.343994 732.717163, 2158.957275 731.578918, 2159.226318 729.691528, 2160.771729 728.305725, 2162.331055 726.007446, 2164.773193 723.781738, 2166.498779 721.734009, 2167.474609 719.419495, 2169.153320 717.662964, 2171.376465 714.978638, 2173.307861 713.416260, 2174.423584 711.760864, 2175.120850 709.498413, 2175.992676 707.040283, 2177.310059 705.978149, 2175.842285 704.829407, 2176.924316 702.463013, 2177.868652 700.135010, 2179.071777 697.557861, 2179.618652 695.368286, 2181.937256 693.591919, 2182.529785 691.306274, 2183.240967 688.715088, 2186.306641 684.092285, 2187.571289 683.298950, 2187.954590 681.869263, 2188.062744 680.033691, 2189.932373 676.156494, 2191.560547 671.154297, 2192.947998 666.109985, 2193.789062 661.525024, 2195.485596 658.645142, 2196.139893 654.620728, 2196.926758 650.477722, 2197.339600 647.530334, 2197.394287 644.443359, 2198.824219 642.729980, 2198.944092 639.918335, 2199.655762 635.312500, 2200.557617 631.755981, 2200.590332 628.484314, 2201.461182 625.582275, 2201.298096 622.863708, 2202.031250 618.248901, 2202.615967 613.731750, 2202.513184 609.334656, 2202.383057 605.051025, 2202.355225 601.963745, 2202.645264 598.651733, 2203.137939 595.038208, 2203.920410 593.120239, 2203.283936 591.609802, 2204.532715 588.223572, 2203.965820 586.236328, 2205.270020 582.549805, 2205.058105 578.840393, 2206.105713 569.873047, 2207.437500 562.176697, 2208.847168 552.059937, 2209.409668 545.803711, 2210.134033 538.196045, 2212.061523 530.924377, 2214.604736 523.228882, 2216.964600 515.664551, 2219.193604 508.362854, 2220.712158 504.675354, 2221.949707 505.080994, 2221.925781 504.263794, 2222.358398 502.364075, 2223.780273 500.093628, 2224.561523 498.552979, 2224.476807 495.958679, 2223.692627 493.808289, 2223.379150 489.660461, 2223.716797 486.372070, 2224.202148 485.721924, 2224.650879 483.108704, 2224.056885 481.165710, 2223.702393 478.904297, 2223.018555 475.153015, 2224.777100 472.783813, 2225.670166 469.643005, 2225.618652 467.271851, 2225.841309 463.685669, 2227.843262 458.810791, 2229.896729 454.128052, 2231.252686 451.009583, 2231.976074 448.164001, 2233.198730 447.400085, 2233.504639 445.062134, 2234.054688 441.065613, 2235.324219 437.565430, 2236.169678 436.253113, 2236.421875 433.975098, 2236.778076 430.989624, 2236.660156 428.099609, 2237.911133 426.730652, 2237.862061 425.559387, 2237.835693 423.260071, 2239.163330 422.533630, 2239.318359 421.003967, 2239.469482 418.269409, 2241.602539 415.048523, 2243.337402 411.004333, 2244.715576 410.316284, 2244.623535 409.215027, 2244.527344 406.647278, 2245.227295 403.601318, 2245.089355 400.284973, 2245.445312 396.844971, 2245.055908 393.820557, 2245.213135 390.197998, 2245.689941 387.835449, 2245.224854 384.464783, 2245.638916 381.409363, 2246.136963 379.226379, 2247.075684 376.612244, 2247.785645 373.296631, 2248.134766 369.707031, 2249.046387 367.842163, 2248.256836 365.950134, 2248.921631 364.804504, 2248.672607 362.971069, 2248.940186 359.247437, 2248.740967 355.746277, 2249.088135 353.006958, 2248.360107 350.522644, 2247.497803 347.744629, 2246.697754 345.106384, 2246.249023 342.050720, 2245.939209 338.977844, 2245.392822 335.353394, 2246.089111 331.922180, 2246.240234 328.713257, 2247.258057 327.982300, 2246.584473 325.971130, 2247.145996 322.851562, 2247.587158 319.832947, 2248.567871 318.891968, 2247.712646 316.981567, 2247.476074 313.426575, 2246.987549 309.608887, 2246.446533 306.214050, 2246.033936 303.493652, 2245.512451 301.337830, 2244.983398 299.467102, 2245.252930 296.036621, 2244.257324 292.603394, 2244.840820 290.326172, 2244.200195 287.941223, 2242.787598 285.649353, 2241.251221 282.406311, 2238.795166 278.855347, 2239.161133 276.832092, 2236.783936 274.960144, 2235.998047 271.610046, 2236.797119 270.221680, 2236.093018 268.095154, 2235.321533 266.058655, 2234.902344 264.370605, 2234.783691 263.261719, 2234.286377 261.801147, 2232.062500 260.010132, 2229.679199 258.857178, 2227.475098 257.843567, 2226.009766 257.218872, 2224.673584 256.977905, 2222.571289 255.713074, 2220.727539 254.316223, 2218.770752 251.822327, 2216.911133 248.661560, 2215.372314 245.925049, 2212.809814 243.743652, 2211.001953 241.573914, 2210.126221 239.740540, 2209.050049 237.520386, 2207.031982 235.759644, 2204.840576 233.268494, 2202.205566 231.028687, 2199.912109 228.468262, 2198.077637 225.451904, 2195.529541 222.009155, 2193.285400 219.267639, 2191.410400 216.270264, 2188.416016 213.342346, 2185.341309 211.545044, 2182.997314 208.123169, 2179.891602 205.831055, 2177.027100 203.250305, 2174.824219 199.624939, 2172.614746 196.070435, 2170.223389 193.312744, 2168.427734 192.033081, 2167.441406 190.826843, 2166.295654 190.998230, 2164.075928 188.614563, 2162.527344 186.953186, 2160.966553 185.584412, 2159.015625 183.639221, 2156.910400 181.594360, 2154.865723 180.532837, 2152.585938 178.511536, 2150.649414 176.093628, 2151.376221 174.318970, 2150.953369 172.400330, 2151.978271 172.030701, 2151.532227 171.328674, 2150.348633 170.308228, 2150.662354 168.327759, 2151.725098 167.673645, 2150.325195 166.587585, 2148.706055 164.810547, 2147.566162 162.936829, 2147.976562 161.464661, 2147.584229 159.873291, 2146.148926 158.358032, 2146.847412 156.224426, 2146.625488 154.255127, 2145.750977 152.245239, 2144.735596 149.900635, 2145.058838 147.656250, 2144.805664 145.815674, 2145.529785 144.995667, 2144.542725 144.155518, 2145.098389 142.039001, 2144.286377 139.649902, 2143.264404 137.227112, 2142.711182 134.778809, 2142.188721 132.270935, 2141.613525 129.677490, 2141.280273 126.989990, 2139.304932 126.271240, 2137.043701 125.648376, 2135.317871 124.522949, 2133.616943 125.131287, 2131.542480 124.967041, 2129.337646 125.741211, 2126.525635 125.530579, 2124.230225 125.059692, 2122.591064 123.304749, 2120.708252 123.620056, 2118.763428 122.347717, 2116.420898 122.281860, 2114.548096 121.539001, 2112.857910 122.114258, 2110.288574 121.825684, 2107.952637 121.708984, 2105.649658 121.591553, 2103.411865 121.490479, 2101.178467 121.661255, 2098.932617 122.051208, 2096.725830 122.350525, 2095.000244 122.966431, 2093.753906 122.173767, 2093.328857 123.621338, 2091.203369 123.878296, 2089.358643 124.585815, 2088.132812 123.648132, 2087.502441 125.111511, 2084.987793 125.263977, 2083.346924 124.015320, 2081.608398 124.511719, 2078.971924 124.464661, 2077.546875 122.806946, 2075.542236 122.474548, 2073.373535 122.468140, 2071.476074 122.807190, 2068.712158 122.875183, 2067.329346 122.019104, 2066.319580 122.902466, 2063.721924 123.239685, 2062.978271 122.345764, 2061.731201 123.374878, 2060.639404 124.388489, 2059.149902 125.464844, 2056.661865 127.208984, 2054.166992 129.047180, 2051.516113 129.175354, 2049.554932 130.883301, 2047.522949 132.315735, 2046.045044 133.514282, 2044.685547 134.048218, 2042.604126 134.821960, 2041.244629 133.567444, 2039.411011 134.363586, 2036.486694 135.595337, 2033.397217 136.691406, 2031.067993 135.808594, 2028.429688 135.822510, 2025.771362 137.310486, 2023.527954 135.672363, 2021.381714 135.449707, 2021.363647 137.194397, 2018.694824 136.161560, 2017.549438 135.526550, 2016.596680 137.508301, 2014.405884 136.385620, 2012.523804 137.456055, 2009.627441 138.596863, 2006.159302 139.977295, 2003.221436 139.948914, 2000.137817 141.188904, 1998.292603 141.040649, 1997.047852 142.155640, 1993.722900 143.362793, 1991.075073 143.873779, 1989.443970 144.905029, 1985.789062 146.122803, 1982.865112 146.537415, 1980.270264 147.678406, 1976.519531 148.984436, 1973.054565 149.356323, 1971.307251 150.560913, 1966.330688 151.561890, 1959.801514 152.600769, 1953.351685 153.352539, 1949.019531 153.267029, 1945.799316 153.662537, 1943.350220 154.061829, 1942.126587 154.356689, 1940.436035 154.844849, 1931.439697 152.417908, 1923.648682 149.079041, 1919.534302 146.484497, 1912.090576 142.953430, 1908.371216 139.750122, 1904.554565 136.269165, 1899.976929 132.424500, 1896.492432 129.609314, 1893.177612 126.884583, 1889.111084 123.444092, 1885.780884 120.699280, 1882.312012 118.492554, 1881.005249 116.681335, 1878.722656 116.151306, 1875.822510 113.532166, 1874.162964 111.328003, 1874.910156 110.464417, 1873.897949 109.703857, 1873.153198 108.776917, 1871.738525 108.507019, 1869.631836 107.868103, 1868.466553 106.147644, 1865.853149 105.635010, 1863.364868 103.303101, 1860.884399 102.147217, 1858.149292 100.700867, 1856.011841 99.838318, 1854.497314 99.260071, 1851.951294 97.965332, 1849.773926 95.890747, 1847.036133 94.446289, 1846.076416 92.686279, 1844.458374 92.480530, 1842.156494 90.816284, 1838.952515 89.671814, 1837.898193 88.145447, 1835.734619 88.248962, 1833.306274 86.353516, 1829.593994 85.976990, 1825.555054 85.490845, 1825.217896 83.609497, 1822.755249 83.371277, 1823.014526 81.851868, 1821.444336 81.155884, 1819.529175 79.801086, 1818.076294 77.042053, 1818.647705 76.324097, 1818.163818 75.536316, 1816.888184 74.097046, 1816.665771 70.959229, 1814.697021 68.979614, 1813.553223 67.555908, 1811.960449 66.551208, 1812.814575 65.479065, 1812.044800 65.137817, 1810.571777 64.653931, 1807.909302 63.875427, 1806.054077 61.995850, 1805.440308 60.613220, 1803.389648 60.521179, 1801.659302 59.817993, 1799.842285 59.191223, 1798.645874 58.184509, 1797.441284 57.724548, 1796.807861 56.916199, 1795.820923 56.515747, 1793.993286 55.638855, 1793.598389 54.099365, 1792.868164 52.562317, 1792.406128 50.624329, 1791.883423 48.744141, 1791.388916 46.756409, 1790.758545 44.870056, 1789.512329 42.303650, 1788.819580 40.255005, 1788.398193 38.776184, 1786.985596 38.101257, 1785.483032 37.028198, 1783.871338 36.065918, 1783.848877 33.679688, 1781.942017 32.072693, 1781.199951 29.835815, 1779.558960 28.885925, 1777.749634 27.881042, 1775.985596 27.071167, 1773.965454 26.578186, 1772.284180 25.148010, 1770.772705 24.342163, 1769.899902 22.795776, 1768.608521 21.070068, 1766.418335 22.011902, 1764.884033 22.918457, 1763.982422 22.685852, 1763.519775 23.146179, 1763.147583 23.689209, 1763.382324 24.660217, 1762.532959 26.343445, 1761.435425 28.409973, 1759.128418 29.557617, 1756.724609 30.195557, 1755.593872 29.137451, 1754.661865 30.328552, 1752.986694 30.752869, 1752.221436 32.074097, 1749.909546 32.107971, 1747.960693 31.971924, 1746.182495 32.746704, 1743.484375 33.766541, 1739.843262 35.074280, 1735.447632 35.521545, 1733.503174 35.418274, 1732.407715 36.827271, 1729.780273 37.893066, 1727.187378 38.780579, 1726.355469 37.841553, 1724.198975 38.808472, 1721.888916 38.494141, 1720.646851 38.874817, 1718.924805 39.602600, 1716.331909 39.465271, 1713.666870 39.697998, 1710.209351 40.665283, 1706.696655 40.839355, 1704.427734 40.221619, 1701.190674 40.309265, 1696.753540 39.880310, 1692.995117 39.251221, 1688.871460 39.421326, 1683.694092 39.397888, 1681.417480 38.723267, 1680.554443 39.845581, 1678.309204 41.046265, 1675.541748 41.294006, 1672.576660 41.809143, 1669.081299 42.120789, 1667.627197 41.461792, 1665.380859 42.405457, 1661.352783 43.466797, 1657.531982 42.818787, 1655.925903 41.340210, 1653.177612 41.432251, 1651.341797 40.910522, 1649.700195 40.633179, 1648.702637 42.168457, 1646.594727 43.961060, 1644.791138 43.238647, 1643.147461 42.569885, 1641.852173 40.368164, 1642.334961 38.553833, 1641.633545 38.498779, 1640.392944 38.235596, 1639.926392 35.895203, 1637.450806 34.533813, 1636.351562 35.542969, 1633.893188 34.537964, 1633.052490 36.310730, 1632.493042 38.152649, 1632.528198 40.333008, 1630.813721 41.295715, 1631.213501 43.351929, 1629.346558 44.070679, 1629.264893 46.071838, 1627.643799 45.953247, 1628.042969 47.609375, 1626.248535 48.526917, 1624.241211 48.799927, 1623.727905 50.473389, 1621.875000 50.075134, 1620.228638 50.165833, 1619.862183 51.832336, 1618.930664 53.187500, 1617.075439 53.594604, 1615.621704 54.409302, 1615.335693 55.451477, 1614.817871 57.128540, 1612.837769 56.924377, 1612.721558 58.566284, 1610.867310 59.578613, 1610.302490 61.773926, 1609.277710 64.057495, 1608.046265 66.579895, 1606.326782 69.466797, 1604.463135 70.130371, 1604.402466 72.282471, 1602.184204 75.994019, 1600.664429 77.036743, 1600.733887 78.214966, 1599.878784 80.547424, 1599.155884 83.152161, 1598.008057 85.838013, 1596.450562 86.007874, 1596.369629 88.232727, 1596.107788 91.722656, 1594.618896 94.016846, 1593.203857 96.433472, 1591.523560 98.891418, 1589.887085 101.310364, 1588.331665 103.499634, 1586.943848 105.130554, 1585.874390 106.791626, 1584.545776 109.086792, 1582.983887 110.410156, 1581.997925 113.185608, 1580.986572 115.549072, 1581.156616 118.045593, 1579.999878 119.821045, 1580.168335 122.833313, 1580.544922 126.158936, 1579.788452 128.005493, 1579.741089 129.349915, 1579.076782 131.455688, 1577.791992 134.843262, 1574.834961 137.289795, 1572.213623 139.773376, 1570.472046 141.463562, 1569.019775 143.174377, 1568.634888 145.691467, 1566.809204 148.416199, 1565.194946 151.130737, 1563.833740 153.455872, 1562.521362 155.609314, 1558.946777 154.797363, 1555.595947 156.558350, 1553.400513 163.474976, 1553.235596 165.079529, 1554.874023 166.898804, 1558.288818 167.998840, 1558.973022 170.441406, 1559.077148 172.663330, 1559.576660 174.250793, 1558.678467 176.886597, 1557.054443 177.766235, 1556.222534 178.218262, 1556.735229 179.478027, 1555.189209 180.330994, 1555.176392 182.616638, 1554.062744 185.523926, 1552.837280 188.705200, 1550.958130 190.889587, 1549.987915 193.874512, 1548.190674 197.030151, 1545.603882 200.532410, 1542.833984 204.082581, 1539.976562 207.437683, 1537.649658 208.725647, 1536.152832 210.606445, 1532.299438 213.687378, 1528.304810 216.529602, 1524.774292 218.008728, 1521.687134 219.298706, 1518.381592 221.056091, 1514.680664 222.421265, 1510.042603 223.000122, 1504.569702 223.657410, 1499.326538 222.996643, 1494.902466 221.899597, 1490.978271 219.674011, 1488.804688 218.125793, 1486.298096 217.847656, 1484.079834 216.421509, 1479.514648 214.722046, 1475.075439 213.209717, 1474.552856 212.130432, 1472.208130 211.834167, 1468.713989 211.327698, 1467.190063 209.878540, 1466.020142 209.101746, 1465.046875 209.607605, 1461.307495 208.321716, 1460.517212 207.040649, 1459.949707 206.352051, 1458.921021 206.796204, 1458.032959 205.227844, 1456.172241 205.096008, 1453.464600 203.993896, 1450.607666 203.155823, 1448.070679 202.288818, 1446.439575 200.442261, 1443.926392 199.284790, 1440.976562 199.607788, 1437.766968 199.214661, 1435.110962 198.947876, 1432.658691 198.875427, 1431.778687 198.057190, 1430.946777 198.227783, 1428.627563 198.526428, 1425.822144 198.877563, 1423.022705 199.297913, 1420.063599 198.536133, 1416.678589 198.230774, 1413.872437 198.088501, 1411.312866 196.970947, 1408.899902 195.548767, 1407.123413 193.532471, 1406.333862 192.212830, 1405.418213 192.225464, 1403.456543 190.665466, 1402.888306 189.327148, 1401.572754 189.160156, 1399.163574 187.461121, 1397.163940 185.891968, 1394.114624 184.373108, 1391.417236 182.301880, 1388.754883 181.709229, 1386.743896 180.063599, 1383.526123 179.836914, 1379.632446 179.901062, 1376.866699 178.888550, 1373.863770 178.916626, 1371.953369 177.899414, 1369.147583 178.102295, 1366.468018 177.684265, 1364.349854 176.610291, 1362.390381 175.743591, 1360.725342 174.664185, 1359.052490 173.681519, 1357.345215 172.720093, 1355.480835 171.623230, 1353.619019 170.464600, 1351.765381 169.227112, 1349.915894 168.006104, 1347.341553 168.909729, 1345.875488 167.515503, 1343.475708 167.804565, 1340.956055 168.111633, 1338.525269 168.177734, 1336.143311 168.125305, 1333.789062 167.959106, 1331.387451 167.634827, 1328.887451 167.523987, 1326.195801 167.591492, 1323.330933 167.769470, 1319.896362 168.081177, 1317.711548 167.954224, 1316.588013 168.058899, 1314.547119 168.394836, 1314.162231 166.756226, 1313.427124 167.124512, 1312.134277 167.532776, 1309.953735 166.887756, 1307.726318 166.568359, 1306.369995 167.245605, 1304.321655 167.883850, 1302.758789 166.824036, 1301.278809 168.080566, 1299.620361 167.035339, 1298.395752 168.524597, 1296.324707 167.773132, 1294.278564 167.496399, 1291.396240 167.178223, 1289.117432 169.380981, 1287.041016 168.540771, 1286.149902 170.409302, 1283.988770 169.525208, 1283.090332 171.309143, 1280.260010 171.762878, 1277.525391 172.600586, 1275.443604 173.515320, 1274.157349 172.615051, 1272.698120 171.995178, 1271.362183 171.101501, 1270.647339 172.442566, 1269.628784 171.313843, 1269.078003 171.015991, 1268.068604 170.820129, 1268.823120 172.404236, 1268.613281 175.080200, 1269.020142 177.339661, 1269.863159 179.428223, 1269.660645 181.839966, 1270.473877 184.648926, 1268.918579 185.784912, 1269.734253 188.168701, 1268.477539 191.706482, 1267.192627 194.542419, 1266.078125 197.355286, 1263.067749 199.996033, 1261.090210 201.110962, 1259.754395 201.880249, 1258.584229 203.779846, 1257.078613 206.153931, 1256.168091 207.882324, 1256.279663 209.269592, 1254.509766 210.867615, 1252.419922 212.549500, 1249.991699 214.351135, 1247.587280 216.138428, 1245.091187 218.191772, 1242.715820 219.362305, 1241.122803 220.125305, 1239.185791 221.732849, 1236.669067 222.798889, 1235.022095 224.491577, 1231.852173 225.398682, 1228.959351 226.228882, 1225.998169 226.629517, 1223.086548 227.271851, 1220.169800 226.967651, 1216.985474 227.903992, 1214.549683 229.405884, 1210.764526 230.162659, 1207.156982 230.670898, 1203.266113 231.691223, 1201.697144 229.592896, 1199.235229 229.900269, 1197.019409 228.814209, 1193.416138 229.832031, 1190.795044 227.751526, 1189.007446 228.400513, 1186.621216 227.475586, 1184.564697 227.191040, 1183.025513 226.033936, 1182.446167 224.519043, 1181.489380 223.707581, 1179.507690 222.448425, 1178.156006 219.498657, 1176.294922 218.622437, 1174.523926 219.248962, 1172.559937 219.855957, 1171.050171 220.749390, 1170.201294 223.246216, 1167.543945 225.091431, 1165.461792 226.398315, 1164.343628 227.121033, 1163.634033 227.820007, 1163.742432 229.237427, 1162.788452 231.629700, 1159.859131 233.316650, 1158.430542 234.174500, 1157.590576 235.058044, 1157.071411 236.981567, 1155.444702 237.096497, 1155.374390 239.546204, 1153.234985 238.708008, 1152.497070 240.251465, 1153.127197 242.204224, 1151.427124 245.163269, 1148.722656 247.528687, 1147.421387 250.253723, 1146.544556 252.890869, 1144.135864 254.747864, 1141.776611 257.110046, 1140.209229 257.958313, 1139.440796 258.175537, 1140.132690 259.644531, 1137.549194 261.763489, 1134.799927 263.812561, 1132.931274 265.714294, 1131.795166 267.551697, 1130.474121 268.832886, 1129.729736 270.981995, 1129.292358 273.015747, 1129.500977 275.871704, 1127.981201 279.877808, 1126.937012 282.728455, 1126.538452 285.271057, 1126.397705 287.886719, 1126.596924 290.856384, 1124.329346 292.245667, 1124.210938 294.018188, 1123.715576 295.532532, 1125.371704 297.809143, 1124.710205 300.429932, 1124.612061 302.366577, 1122.460571 303.706604, 1121.249023 305.801575, 1119.492798 306.858032, 1120.572998 308.802002, 1117.745605 309.070312, 1116.866455 311.088501, 1114.466064 311.968018, 1114.716431 313.599182, 1112.810303 315.101257, 1112.123047 316.841003, 1110.438232 318.637390, 1108.503784 319.058838, 1106.708862 321.487549, 1104.651123 324.009644, 1103.683838 325.531982, 1103.134766 326.295288, 1102.003784 327.658325, 1100.943726 331.044312, 1099.558960 333.519287, 1099.307861 335.788330, 1098.750610 338.713440, 1098.311401 341.562195, 1097.225220 345.323608, 1096.531982 348.815247, 1096.756592 351.192688, 1096.180176 354.109802, 1096.712646 357.443481, 1096.339355 361.033081, 1095.380981 363.232666, 1094.942749 364.273254, 1096.150635 364.779724, 1095.163696 366.542786, 1094.734497 367.266968, 1095.547241 368.013000, 1094.503662 370.177246, 1094.944946 372.562378, 1094.156616 375.156677, 1093.718018 378.029907, 1093.911011 381.713196, 1093.507080 385.315857, 1091.994385 386.484985, 1092.435791 388.335327, 1092.456787 391.975159, 1091.161621 393.449036, 1091.026733 396.112488, 1089.580933 396.267578, 1088.859985 396.652710, 1089.345825 398.334717, 1087.858765 401.200989, 1086.908203 403.046448, 1087.229248 404.758362, 1087.637451 406.748047, 1086.576660 408.211792, 1087.368164 410.101746, 1088.140625 413.439636, 1087.640015 417.057495, 1088.066406 420.794678, 1087.697998 424.861633, 1088.078735 428.362488, 1088.956665 432.894531, 1089.198120 438.174866, 1090.482178 443.462708, 1090.443848 447.697693, 1089.945068 451.154846, 1089.117310 454.323547, 1089.241943 458.354919, 1089.729492 462.595398, 1090.652588 467.388550, 1090.469238 470.298706, 1091.208862 473.315125, 1091.970581 476.803955, 1092.810059 480.288147, 1092.161133 481.955688, 1093.945679 483.729126, 1094.930054 486.522827, 1095.832886 488.589600, 1095.781128 489.992798, 1096.149048 491.280334, 1096.660156 493.162964, 1097.282471 495.839539, 1096.499756 498.419861, 1096.453857 501.229370, 1097.085938 503.979675, 1096.393066 505.843079, 1097.577515 506.685364, 1097.760376 510.170593, 1098.607788 513.761719, 1099.848633 517.172485, 1101.067383 520.419373, 1102.420654 523.608398, 1103.423950 526.728943, 1104.589355 529.492737, 1105.572632 532.105835, 1105.750366 534.381592, 1106.160522 536.570068, 1107.521729 538.577393, 1107.137573 541.465210, 1108.878174 543.149780, 1109.358398 546.141846, 1109.777466 548.323303, 1111.689575 550.390625, 1111.601196 552.818481, 1114.008423 555.062195, 1115.985840 557.368530, 1118.072998 558.986084, 1119.281982 561.850342, 1120.446899 564.350098, 1122.837402 566.523438, 1122.969604 568.961792, 1124.678467 572.109802, 1124.515503 574.033997, 1126.144165 575.450867, 1128.792847 577.745483, 1128.646606 579.738098, 1130.540405 581.297668, 1131.580322 584.144775, 1133.030884 586.588806, 1135.212891 589.796509, 1137.271240 592.523438, 1138.865356 595.322327, 1140.869385 598.242554, 1143.318115 600.488159, 1144.551270 602.561523, 1146.718506 604.039551, 1147.806763 605.686096, 1149.595459 606.944397, 1150.848999 608.435364, 1153.300171 610.213989, 1156.181030 613.666992, 1158.107544 616.942627, 1159.632812 619.561035, 1160.529297 623.349365, 1160.227783 625.044495, 1161.272217 626.167969, 1161.664795 628.901062, 1161.740967 629.773071, 1162.348389 631.556213, 1162.115967 630.625244Z "/>
    </clipPath>
    <filter id="dropshadow">
      <feGaussianBlur in="SourceAlpha" stdDeviation="2"/>
      <feMerge>
        <feMergeNode/>
        <feMergeNode in="SourceGraphic"/>
      </feMerge>
    </filter>
  </defs>
  <g inkscape:label="rois" inkscape:groupmode="layer" id="rois" transform="translate(0,0)" style="display:inline;" class="display_layer">
    <g inkscape:label="shapes" inkscape:groupmode="layer" id="rois_shapes" transform="translate(0,0)" style="display:inline;" clip-path="url(#edgeclip)">
      <g id="nsdgeneral" style="display:inline;" inkscape:label="nsdgeneral" inkscape:groupmode="layer"/>
      <g id="nsdgeneral" style="display:inline;" inkscape:label="nsdgeneral" inkscape:groupmode="layer"/>
    </g>
    <g inkscape:label="labels" inkscape:groupmode="layer" id="rois_labels" transform="translate(0,0)" style="display:inline;">
    </g>
  </g>
  <svg:g id="sulci" style="display:inline;" inkscape:label="sulci" inkscape:groupmode="layer" class="display_layer">
    <svg:g id="sulci_shapes" style="display:inline;" inkscape:label="shapes" inkscape:groupmode="layer" clip-path="url(#edgeclip)"/>
    <svg:g id="sulci_labels" style="display:inline;" inkscape:label="labels" inkscape:groupmode="layer"/>
  </svg:g>
  <svg:g id="cutouts" style="display:inline;" inkscape:label="cutouts" inkscape:groupmode="layer" class="display_layer">
    <svg:g id="cutouts_shapes" style="display:inline;" inkscape:label="shapes" inkscape:groupmode="layer" clip-path="url(#edgeclip)"/>
    <svg:g id="cutouts_labels" style="display:inline;" inkscape:label="labels" inkscape:groupmode="layer"/>
  </svg:g>
  <svg:g id="display" style="display:inline;" inkscape:label="display" inkscape:groupmode="layer" class="display_layer">
    <svg:g id="display_shapes" style="display:inline;" inkscape:label="shapes" inkscape:groupmode="layer" clip-path="url(#edgeclip)"/>
    <svg:g id="display_labels" style="display:inline;" inkscape:label="labels" inkscape:groupmode="layer"/>
  </svg:g>
</svg>
